# Blender v2.80 (sub 75) OBJ File: ''
# www.blender.org
mtllib rabbit-0.mtl
o rabbit-0
v -0.200000 0.300000 0.100000
v -0.200000 0.200000 -0.100000
v -0.200000 0.200000 0.100000
v -0.200000 0.300000 0.000000
v -0.200000 0.300000 -0.100000
v -0.200000 0.400000 0.200000
v -0.200000 0.300000 0.200000
v -0.200000 0.400000 0.000000
v -0.200000 0.400000 -0.100000
v -0.200000 0.300000 -0.200000
v -0.200000 0.400000 -0.200000
v -0.200000 0.500000 0.200000
v -0.200000 0.500000 -0.200000
v -0.200000 0.600000 0.200000
v -0.200000 0.600000 -0.200000
v -0.200000 0.700000 0.200000
v -0.200000 0.700000 0.100000
v -0.200000 0.700000 0.000000
v -0.200000 0.700000 -0.200000
v -0.200000 0.800000 0.200000
v -0.200000 0.800000 0.100000
v -0.200000 0.800000 0.000000
v -0.200000 0.800000 -0.200000
v -0.200000 0.900000 0.200000
v -0.200000 0.900000 -0.200000
v -0.200000 1.300000 0.100000
v -0.200000 1.100000 0.000000
v -0.200000 1.100000 0.100000
v -0.200000 1.300000 0.000000
v -0.100000 0.200000 0.100000
v -0.100000 0.100000 -0.100000
v -0.100000 0.100000 0.100000
v -0.100000 0.200000 -0.100000
v -0.100000 0.300000 0.200000
v -0.100000 0.200000 0.200000
v -0.100000 0.300000 0.100000
v -0.100000 0.300000 -0.100000
v -0.100000 0.200000 -0.200000
v -0.100000 0.300000 -0.200000
v -0.100000 1.000000 0.100000
v -0.100000 0.900000 -0.100000
v -0.100000 0.900000 0.100000
v -0.100000 1.000000 0.000000
v -0.100000 1.000000 -0.100000
v -0.100000 1.100000 0.100000
v -0.100000 1.100000 0.000000
v -0.100000 1.200000 0.000000
v -0.100000 1.100000 -0.100000
v -0.100000 1.200000 -0.100000
v -0.100000 1.300000 -0.100000
v -0.100000 1.200000 -0.200000
v -0.100000 1.300000 -0.200000
v 0.000000 1.100000 0.000000
v 0.000000 1.000000 -0.100000
v 0.000000 1.000000 0.000000
v 0.000000 1.100000 -0.100000
v 0.100000 1.300000 0.000000
v 0.100000 1.200000 -0.100000
v 0.100000 1.200000 0.000000
v 0.100000 1.300000 -0.100000
v -0.100000 1.200000 0.100000
v -0.100000 1.200000 0.000000
v -0.100000 1.300000 0.100000
v -0.100000 1.300000 0.000000
v 0.000000 1.000000 0.100000
v 0.000000 1.000000 0.000000
v 0.000000 1.200000 0.100000
v 0.000000 1.200000 0.000000
v 0.000000 1.200000 -0.100000
v 0.000000 1.200000 -0.200000
v 0.000000 1.300000 -0.100000
v 0.000000 1.300000 -0.200000
v 0.100000 0.100000 0.100000
v 0.100000 0.100000 -0.100000
v 0.100000 0.200000 0.100000
v 0.100000 0.200000 -0.100000
v 0.100000 0.200000 0.200000
v 0.100000 0.300000 0.200000
v 0.100000 0.300000 0.100000
v 0.100000 0.200000 -0.200000
v 0.100000 0.300000 -0.100000
v 0.100000 0.300000 -0.200000
v 0.100000 0.900000 0.100000
v 0.100000 0.900000 -0.100000
v 0.100000 1.000000 0.100000
v 0.100000 1.000000 0.000000
v 0.100000 1.000000 -0.100000
v 0.100000 1.200000 0.000000
v 0.100000 1.200000 -0.100000
v 0.200000 0.200000 0.100000
v 0.200000 0.200000 -0.100000
v 0.200000 0.300000 0.100000
v 0.200000 0.300000 -0.100000
v 0.200000 0.300000 0.200000
v 0.200000 0.400000 0.200000
v 0.200000 0.300000 -0.200000
v 0.200000 0.400000 -0.200000
v 0.200000 0.500000 0.200000
v 0.200000 0.500000 -0.100000
v 0.200000 0.600000 0.200000
v 0.200000 0.600000 -0.100000
v 0.200000 0.700000 0.200000
v 0.200000 0.700000 0.100000
v 0.200000 0.700000 0.000000
v 0.200000 0.700000 -0.200000
v 0.200000 0.800000 0.200000
v 0.200000 0.800000 0.100000
v 0.200000 0.800000 0.000000
v 0.200000 0.800000 -0.200000
v 0.200000 0.900000 0.200000
v 0.200000 0.900000 -0.200000
v 0.200000 1.200000 0.000000
v 0.200000 1.200000 -0.100000
v 0.200000 1.300000 0.000000
v 0.200000 1.300000 -0.100000
v -0.100000 0.300000 0.200000
v -0.200000 0.400000 0.200000
v -0.200000 0.300000 0.200000
v -0.100000 0.500000 0.200000
v -0.200000 0.500000 0.200000
v -0.200000 0.600000 0.200000
v -0.100000 0.600000 0.200000
v -0.200000 0.700000 0.200000
v 0.000000 0.500000 0.200000
v 0.000000 0.600000 0.200000
v 0.100000 0.200000 0.200000
v -0.100000 0.200000 0.200000
v 0.100000 0.300000 0.200000
v 0.200000 0.300000 0.200000
v 0.200000 0.400000 0.200000
v 0.200000 0.500000 0.200000
v 0.200000 0.600000 0.200000
v 0.200000 0.700000 0.200000
v -0.200000 0.800000 0.200000
v 0.200000 0.800000 0.200000
v -0.200000 0.900000 0.200000
v 0.200000 0.900000 0.200000
v -0.100000 0.200000 0.100000
v -0.200000 0.300000 0.100000
v -0.200000 0.200000 0.100000
v -0.100000 0.300000 0.100000
v -0.100000 1.100000 0.100000
v -0.200000 1.300000 0.100000
v -0.200000 1.100000 0.100000
v -0.100000 1.200000 0.100000
v -0.100000 1.300000 0.100000
v 0.000000 1.000000 0.100000
v -0.100000 1.000000 0.100000
v -0.100000 0.900000 0.100000
v 0.000000 1.200000 0.100000
v 0.100000 0.100000 0.100000
v -0.100000 0.100000 0.100000
v 0.100000 0.200000 0.100000
v 0.100000 0.900000 0.100000
v 0.100000 1.000000 0.100000
v 0.200000 0.200000 0.100000
v 0.100000 0.300000 0.100000
v 0.200000 0.300000 0.100000
v 0.100000 1.000000 0.000000
v 0.000000 1.200000 0.000000
v 0.000000 1.000000 0.000000
v 0.100000 1.200000 0.000000
v 0.200000 1.200000 0.000000
v 0.100000 1.300000 0.000000
v 0.200000 1.300000 0.000000
v 0.000000 1.200000 -0.100000
v -0.100000 1.300000 -0.100000
v -0.100000 1.200000 -0.100000
v 0.000000 1.300000 -0.100000
v -0.200000 1.100000 0.000000
v -0.200000 1.300000 0.000000
v -0.100000 1.100000 0.000000
v -0.100000 1.200000 0.000000
v -0.100000 1.300000 0.000000
v -0.100000 1.000000 0.000000
v 0.000000 1.000000 0.000000
v 0.000000 1.100000 0.000000
v -0.200000 0.200000 -0.100000
v -0.200000 0.300000 -0.100000
v -0.100000 0.200000 -0.100000
v -0.100000 0.300000 -0.100000
v -0.100000 0.900000 -0.100000
v -0.100000 1.000000 -0.100000
v 0.000000 1.000000 -0.100000
v -0.100000 1.100000 -0.100000
v -0.100000 1.200000 -0.100000
v 0.000000 1.100000 -0.100000
v 0.000000 1.200000 -0.100000
v -0.100000 0.100000 -0.100000
v 0.100000 0.100000 -0.100000
v 0.100000 0.200000 -0.100000
v 0.100000 0.900000 -0.100000
v 0.100000 1.000000 -0.100000
v 0.100000 1.200000 -0.100000
v 0.100000 0.300000 -0.100000
v 0.200000 0.200000 -0.100000
v 0.200000 0.300000 -0.100000
v 0.100000 1.300000 -0.100000
v 0.200000 1.200000 -0.100000
v 0.200000 1.300000 -0.100000
v -0.200000 0.300000 -0.200000
v -0.200000 0.400000 -0.200000
v -0.100000 0.300000 -0.200000
v -0.100000 1.200000 -0.200000
v -0.100000 1.300000 -0.200000
v 0.000000 1.200000 -0.200000
v 0.000000 1.300000 -0.200000
v -0.100000 0.200000 -0.200000
v 0.100000 0.200000 -0.200000
v 0.100000 0.300000 -0.200000
v -0.200000 0.500000 -0.200000
v 0.100000 0.500000 -0.200000
v -0.200000 0.600000 -0.200000
v -0.200000 0.700000 -0.200000
v 0.100000 0.600000 -0.200000
v 0.200000 0.300000 -0.200000
v 0.200000 0.400000 -0.200000
v 0.200000 0.700000 -0.200000
v -0.200000 0.800000 -0.200000
v -0.200000 0.900000 -0.200000
v 0.200000 0.800000 -0.200000
v 0.200000 0.900000 -0.200000
v -0.100000 0.100000 -0.100000
v 0.100000 0.100000 0.100000
v -0.100000 0.100000 0.100000
v 0.100000 0.100000 -0.100000
v -0.100000 0.200000 0.100000
v 0.100000 0.200000 0.200000
v -0.100000 0.200000 0.200000
v 0.100000 0.200000 0.100000
v -0.200000 0.200000 -0.100000
v -0.200000 0.200000 0.100000
v -0.100000 0.200000 -0.100000
v 0.100000 0.200000 -0.100000
v 0.200000 0.200000 0.100000
v 0.200000 0.200000 -0.100000
v -0.100000 0.200000 -0.200000
v 0.100000 0.200000 -0.200000
v -0.200000 0.300000 0.100000
v -0.100000 0.300000 0.200000
v -0.200000 0.300000 0.200000
v -0.100000 0.300000 0.100000
v 0.100000 0.300000 0.100000
v 0.200000 0.300000 0.200000
v 0.100000 0.300000 0.200000
v 0.200000 0.300000 0.100000
v -0.200000 0.300000 -0.200000
v -0.100000 0.300000 -0.100000
v -0.200000 0.300000 -0.100000
v -0.100000 0.300000 -0.200000
v 0.100000 0.300000 -0.200000
v 0.200000 0.300000 -0.100000
v 0.100000 0.300000 -0.100000
v 0.200000 0.300000 -0.200000
v -0.200000 1.100000 0.000000
v -0.100000 1.100000 0.100000
v -0.200000 1.100000 0.100000
v -0.100000 1.100000 0.000000
v -0.100000 1.100000 -0.100000
v 0.000000 1.100000 0.000000
v 0.000000 1.100000 -0.100000
v 0.100000 1.200000 -0.100000
v 0.200000 1.200000 0.000000
v 0.100000 1.200000 0.000000
v 0.200000 1.200000 -0.100000
v -0.100000 1.200000 -0.200000
v 0.000000 1.200000 -0.100000
v -0.100000 1.200000 -0.100000
v 0.000000 1.200000 -0.200000
v -0.200000 0.900000 0.200000
v 0.200000 0.900000 0.200000
v -0.100000 0.900000 0.100000
v 0.100000 0.900000 0.100000
v -0.100000 0.900000 -0.100000
v 0.100000 0.900000 -0.100000
v -0.200000 0.900000 -0.200000
v 0.200000 0.900000 -0.200000
v 0.000000 1.000000 0.100000
v 0.100000 1.000000 0.100000
v 0.000000 1.000000 0.000000
v 0.100000 1.000000 0.000000
v -0.100000 1.000000 0.000000
v -0.100000 1.000000 -0.100000
v 0.000000 1.000000 -0.100000
v -0.100000 1.200000 0.100000
v 0.000000 1.200000 0.100000
v -0.100000 1.200000 0.000000
v 0.000000 1.200000 0.000000
v -0.100000 1.200000 -0.100000
v 0.100000 1.200000 0.000000
v 0.000000 1.200000 -0.100000
v 0.100000 1.200000 -0.100000
v -0.200000 1.300000 0.100000
v -0.100000 1.300000 0.100000
v -0.200000 1.300000 0.000000
v -0.100000 1.300000 0.000000
v 0.100000 1.300000 0.000000
v 0.200000 1.300000 0.000000
v 0.100000 1.300000 -0.100000
v 0.200000 1.300000 -0.100000
v -0.100000 1.300000 -0.100000
v 0.000000 1.300000 -0.100000
v -0.100000 1.300000 -0.200000
v 0.000000 1.300000 -0.200000
vt 0.900391 0.500000
vt 0.900391 0.500000
vt 0.900391 0.500000
vt 0.900391 0.500000
vt 0.900391 0.500000
vt 0.904297 0.500000
vt 0.904297 0.500000
vt 0.904297 0.500000
vt 0.904297 0.500000
vt 0.900391 0.500000
vt 0.904297 0.500000
vt 0.904297 0.500000
vt 0.904297 0.500000
vt 0.904297 0.500000
vt 0.900391 0.500000
vt 0.904297 0.500000
vt 0.900391 0.500000
vt 0.900391 0.500000
vt 0.900391 0.500000
vt 0.900391 0.500000
vt 0.904297 0.500000
vt 0.904297 0.500000
vt 0.904297 0.500000
vt 0.904297 0.500000
vt 0.900391 0.500000
vt 0.900391 0.500000
vt 0.900391 0.500000
vt 0.900391 0.500000
vt 0.900391 0.500000
vt 0.900391 0.500000
vt 0.904297 0.500000
vt 0.904297 0.500000
vt 0.904297 0.500000
vt 0.900391 0.500000
vt 0.904297 0.500000
vt 0.904297 0.500000
vt 0.904297 0.500000
vt 0.904297 0.500000
vt 0.900391 0.500000
vt 0.904297 0.500000
vt 0.900391 0.500000
vt 0.900391 0.500000
vt 0.900391 0.500000
vt 0.900391 0.500000
vt 0.880859 0.500000
vt 0.880859 0.500000
vt 0.880859 0.500000
vt 0.880859 0.500000
vt 0.904297 0.500000
vt 0.904297 0.500000
vt 0.904297 0.500000
vt 0.904297 0.500000
vt 0.900391 0.500000
vt 0.900391 0.500000
vt 0.900391 0.500000
vt 0.900391 0.500000
vt 0.900391 0.500000
vt 0.900391 0.500000
vt 0.900391 0.500000
vt 0.900391 0.500000
vt 0.900391 0.500000
vt 0.900391 0.500000
vt 0.900391 0.500000
vt 0.900391 0.500000
vt 0.900391 0.500000
vt 0.912109 0.500000
vt 0.912109 0.500000
vt 0.912109 0.500000
vt 0.912109 0.500000
vt 0.912109 0.500000
vt 0.912109 0.500000
vt 0.912109 0.500000
vt 0.880859 0.500000
vt 0.880859 0.500000
vt 0.880859 0.500000
vt 0.880859 0.500000
vt 0.912109 0.500000
vt 0.912109 0.500000
vt 0.912109 0.500000
vt 0.912109 0.500000
vt 0.880859 0.500000
vt 0.880859 0.500000
vt 0.880859 0.500000
vt 0.880859 0.500000
vt 0.880859 0.500000
vt 0.880859 0.500000
vt 0.880859 0.500000
vt 0.880859 0.500000
vt 0.912109 0.500000
vt 0.912109 0.500000
vt 0.912109 0.500000
vt 0.912109 0.500000
vt 0.880859 0.500000
vt 0.880859 0.500000
vt 0.880859 0.500000
vt 0.880859 0.500000
vt 0.904297 0.500000
vt 0.904297 0.500000
vt 0.904297 0.500000
vt 0.904297 0.500000
vt 0.900391 0.500000
vt 0.900391 0.500000
vt 0.900391 0.500000
vt 0.900391 0.500000
vt 0.900391 0.500000
vt 0.900391 0.500000
vt 0.900391 0.500000
vt 0.900391 0.500000
vt 0.900391 0.500000
vt 0.900391 0.500000
vt 0.900391 0.500000
vt 0.900391 0.500000
vt 0.900391 0.500000
vt 0.912109 0.500000
vt 0.912109 0.500000
vt 0.912109 0.500000
vt 0.912109 0.500000
vt 0.900391 0.500000
vt 0.900391 0.500000
vt 0.900391 0.500000
vt 0.900391 0.500000
vt 0.904297 0.500000
vt 0.904297 0.500000
vt 0.904297 0.500000
vt 0.904297 0.500000
vt 0.904297 0.500000
vt 0.904297 0.500000
vt 0.900391 0.500000
vt 0.900391 0.500000
vt 0.900391 0.500000
vt 0.900391 0.500000
vt 0.904297 0.500000
vt 0.904297 0.500000
vt 0.904297 0.500000
vt 0.900391 0.500000
vt 0.904297 0.500000
vt 0.900391 0.500000
vt 0.900391 0.500000
vt 0.900391 0.500000
vt 0.900391 0.500000
vt 0.900391 0.500000
vt 0.904297 0.500000
vt 0.904297 0.500000
vt 0.904297 0.500000
vt 0.900391 0.500000
vt 0.904297 0.500000
vt 0.904297 0.500000
vt 0.904297 0.500000
vt 0.904297 0.500000
vt 0.900391 0.500000
vt 0.904297 0.500000
vt 0.900391 0.500000
vt 0.900391 0.500000
vt 0.900391 0.500000
vt 0.900391 0.500000
vt 0.880859 0.500000
vt 0.880859 0.500000
vt 0.880859 0.500000
vt 0.880859 0.500000
vt 0.904297 0.500000
vt 0.904297 0.500000
vt 0.904297 0.500000
vt 0.900391 0.500000
vt 0.900391 0.500000
vt 0.900391 0.500000
vt 0.904297 0.500000
vt 0.904297 0.500000
vt 0.904297 0.500000
vt 0.900391 0.500000
vt 0.900391 0.500000
vt 0.900391 0.500000
vt 0.904297 0.500000
vt 0.900391 0.500000
vt 0.900391 0.500000
vt 0.900391 0.500000
vt 0.900391 0.500000
vt 0.900391 0.500000
vt 0.904297 0.500000
vt 0.900391 0.500000
vt 0.904297 0.500000
vt 0.900391 0.500000
vt 0.904297 0.500000
vt 0.904297 0.500000
vt 0.904297 0.500000
vt 0.904297 0.500000
vt 0.900391 0.500000
vt 0.900391 0.500000
vt 0.904297 0.500000
vt 0.904297 0.500000
vt 0.904297 0.500000
vt 0.904297 0.500000
vt 0.900391 0.500000
vt 0.900391 0.500000
vt 0.900391 0.500000
vt 0.900391 0.500000
vt 0.904297 0.500000
vt 0.900391 0.500000
vt 0.900391 0.500000
vt 0.900391 0.500000
vt 0.900391 0.500000
vt 0.900391 0.500000
vt 0.880859 0.500000
vt 0.880859 0.500000
vt 0.880859 0.500000
vt 0.880859 0.500000
vt 0.880859 0.500000
vt 0.900391 0.500000
vt 0.900391 0.500000
vt 0.900391 0.500000
vt 0.912109 0.500000
vt 0.912109 0.500000
vt 0.912109 0.500000
vt 0.912109 0.500000
vt 0.912109 0.500000
vt 0.904297 0.500000
vt 0.904297 0.500000
vt 0.904297 0.500000
vt 0.904297 0.500000
vt 0.900391 0.500000
vt 0.900391 0.500000
vt 0.900391 0.500000
vt 0.900391 0.500000
vt 0.900391 0.500000
vt 0.900391 0.500000
vt 0.912109 0.500000
vt 0.912109 0.500000
vt 0.912109 0.500000
vt 0.912109 0.500000
vt 0.880859 0.500000
vt 0.880859 0.500000
vt 0.880859 0.500000
vt 0.880859 0.500000
vt 0.880859 0.500000
vt 0.880859 0.500000
vt 0.880859 0.500000
vt 0.880859 0.500000
vt 0.880859 0.500000
vt 0.880859 0.500000
vt 0.880859 0.500000
vt 0.880859 0.500000
vt 0.880859 0.500000
vt 0.912109 0.500000
vt 0.912109 0.500000
vt 0.912109 0.500000
vt 0.912109 0.500000
vt 0.900391 0.500000
vt 0.900391 0.500000
vt 0.900391 0.500000
vt 0.900391 0.500000
vt 0.900391 0.500000
vt 0.900391 0.500000
vt 0.900391 0.500000
vt 0.912109 0.500000
vt 0.912109 0.500000
vt 0.912109 0.500000
vt 0.912109 0.500000
vt 0.904297 0.500000
vt 0.904297 0.500000
vt 0.904297 0.500000
vt 0.904297 0.500000
vt 0.900391 0.500000
vt 0.912109 0.500000
vt 0.912109 0.500000
vt 0.900391 0.500000
vt 0.912109 0.500000
vt 0.900391 0.500000
vt 0.900391 0.500000
vt 0.900391 0.500000
vt 0.900391 0.500000
vt 0.880859 0.500000
vt 0.880859 0.500000
vt 0.880859 0.500000
vt 0.880859 0.500000
vt 0.904297 0.500000
vt 0.904297 0.500000
vt 0.904297 0.500000
vt 0.880859 0.500000
vt 0.880859 0.500000
vt 0.880859 0.500000
vt 0.880859 0.500000
vt 0.900391 0.500000
vt 0.900391 0.500000
vt 0.900391 0.500000
vt 0.904297 0.500000
vt 0.900391 0.500000
vt 0.900391 0.500000
vt 0.900391 0.500000
vt 0.900391 0.500000
vt 0.904297 0.500000
vt 0.904297 0.500000
vt 0.904297 0.500000
vt 0.900391 0.500000
vt 0.900391 0.500000
vt 0.900391 0.500000
vt 0.904297 0.500000
vt 0.904297 0.500000
vt 0.900391 0.500000
vt 0.904297 0.500000
vt 0.900391 0.500000
vt 0.904297 0.500000
vt 0.904297 0.500000
vt 0.904297 0.500000
vt 0.900391 0.500000
vt 0.900391 0.500000
vt 0.900391 0.500000
vt 0.904297 0.500000
vt 0.900391 0.500000
vt 0.904297 0.500000
vt 0.904297 0.500000
vt 0.904297 0.500000
vt 0.904297 0.500000
vt 0.900391 0.500000
vt 0.900391 0.500000
vt 0.900391 0.500000
vt 0.900391 0.500000
vt 0.900391 0.500000
vt 0.900391 0.500000
vt 0.900391 0.500000
vt 0.900391 0.500000
vt 0.900391 0.500000
vt 0.900391 0.500000
vt 0.900391 0.500000
vt 0.900391 0.500000
vt 0.904297 0.500000
vt 0.904297 0.500000
vt 0.904297 0.500000
vt 0.904297 0.500000
vt 0.904297 0.500000
vt 0.904297 0.500000
vt 0.904297 0.500000
vt 0.904297 0.500000
vt 0.904297 0.500000
vt 0.904297 0.500000
vt 0.904297 0.500000
vt 0.904297 0.500000
vt 0.904297 0.500000
vt 0.904297 0.500000
vt 0.904297 0.500000
vt 0.904297 0.500000
vt 0.880859 0.500000
vt 0.880859 0.500000
vt 0.880859 0.500000
vt 0.880859 0.500000
vt 0.912109 0.500000
vt 0.912109 0.500000
vt 0.912109 0.500000
vt 0.912109 0.500000
vt 0.880859 0.500000
vt 0.880859 0.500000
vt 0.880859 0.500000
vt 0.880859 0.500000
vt 0.880859 0.500000
vt 0.880859 0.500000
vt 0.880859 0.500000
vt 0.880859 0.500000
vt 0.900391 0.500000
vt 0.900391 0.500000
vt 0.900391 0.500000
vt 0.900391 0.500000
vt 0.900391 0.500000
vt 0.900391 0.500000
vt 0.900391 0.500000
vt 0.900391 0.500000
vt 0.900391 0.500000
vt 0.900391 0.500000
vt 0.900391 0.500000
vt 0.900391 0.500000
vt 0.900391 0.500000
vt 0.900391 0.500000
vt 0.900391 0.500000
vt 0.912109 0.500000
vt 0.912109 0.500000
vt 0.912109 0.500000
vt 0.912109 0.500000
vt 0.912109 0.500000
vt 0.912109 0.500000
vt 0.912109 0.500000
vt 0.912109 0.500000
vt 0.880859 0.500000
vt 0.880859 0.500000
vt 0.880859 0.500000
vt 0.880859 0.500000
vt 0.880859 0.500000
vt 0.880859 0.500000
vt 0.880859 0.500000
vt 0.880859 0.500000
vt 0.880859 0.500000
vt 0.880859 0.500000
vt 0.880859 0.500000
vt 0.880859 0.500000
vn -1.0000 -0.0000 0.0000
vn 1.0000 0.0000 0.0000
vn 0.0000 -0.0000 1.0000
vn 0.0000 0.0000 -1.0000
vn 0.0000 -1.0000 -0.0000
vn -0.0000 1.0000 0.0000
usemtl palette
s 1
f 1/1/1 2/2/1 3/3/1
f 4/4/1 2/2/1 1/1/1
f 5/5/1 2/2/1 4/4/1
f 6/6/1 1/7/1 7/8/1
f 6/6/1 4/9/1 1/7/1
f 8/10/1 5/5/1 4/4/1
f 8/11/1 4/9/1 6/6/1
f 9/12/1 10/13/1 5/14/1
f 9/15/1 5/5/1 8/10/1
f 11/16/1 10/13/1 9/12/1
f 12/17/1 8/10/1 6/18/1
f 12/17/1 9/15/1 8/10/1
f 12/17/1 11/19/1 9/15/1
f 13/20/1 11/19/1 12/17/1
f 14/21/1 13/22/1 12/23/1
f 15/24/1 13/22/1 14/21/1
f 16/25/1 15/26/1 14/27/1
f 17/28/1 15/26/1 16/25/1
f 18/29/1 15/26/1 17/28/1
f 19/30/1 15/26/1 18/29/1
f 20/31/1 17/32/1 16/33/1
f 21/34/1 18/29/1 17/28/1
f 21/35/1 17/32/1 20/31/1
f 22/36/1 19/37/1 18/38/1
f 22/39/1 18/29/1 21/34/1
f 23/40/1 19/37/1 22/36/1
f 24/41/1 21/34/1 20/42/1
f 24/41/1 22/39/1 21/34/1
f 24/41/1 23/43/1 22/39/1
f 25/44/1 23/43/1 24/41/1
f 26/45/1 27/46/1 28/47/1
f 29/48/1 27/46/1 26/45/1
f 30/49/1 31/50/1 32/51/1
f 33/52/1 31/50/1 30/49/1
f 34/53/1 30/54/1 35/55/1
f 36/56/1 30/54/1 34/53/1
f 37/57/1 38/58/1 33/59/1
f 39/60/1 38/58/1 37/57/1
f 40/61/1 41/62/1 42/63/1
f 43/64/1 41/62/1 40/61/1
f 44/65/1 41/62/1 43/64/1
f 45/66/1 43/67/1 40/68/1
f 46/69/1 43/67/1 45/66/1
f 47/70/1 48/71/1 46/69/1
f 49/72/1 48/71/1 47/70/1
f 50/73/1 51/74/1 49/75/1
f 52/76/1 51/74/1 50/73/1
f 53/77/1 54/78/1 55/79/1
f 56/80/1 54/78/1 53/77/1
f 57/81/1 58/82/1 59/83/1
f 60/84/1 58/82/1 57/81/1
f 61/85/2 62/86/2 63/87/2
f 63/87/2 62/86/2 64/88/2
f 65/89/2 66/90/2 67/91/2
f 67/91/2 66/90/2 68/92/2
f 69/93/2 70/94/2 71/95/2
f 71/95/2 70/94/2 72/96/2
f 73/97/2 74/98/2 75/99/2
f 75/99/2 74/98/2 76/100/2
f 77/101/2 75/102/2 78/103/2
f 78/103/2 75/102/2 79/104/2
f 76/105/2 80/106/2 81/107/2
f 81/107/2 80/106/2 82/108/2
f 83/109/2 84/110/2 85/111/2
f 85/111/2 84/110/2 86/112/2
f 86/112/2 84/110/2 87/113/2
f 86/114/2 87/115/2 88/116/2
f 88/116/2 87/115/2 89/117/2
f 90/118/2 91/119/2 92/120/2
f 92/120/2 91/119/2 93/121/2
f 94/122/2 92/123/2 95/124/2
f 93/125/2 96/126/2 95/124/2
f 92/123/2 93/125/2 95/124/2
f 95/124/2 96/126/2 97/127/2
f 95/128/2 97/129/2 98/130/2
f 98/130/2 97/129/2 99/131/2
f 98/132/2 99/133/2 100/134/2
f 99/131/2 97/129/2 101/135/2
f 100/134/2 99/133/2 101/136/2
f 100/137/2 101/135/2 102/138/2
f 102/138/2 101/135/2 103/139/2
f 103/139/2 101/135/2 104/140/2
f 101/135/2 97/129/2 105/141/2
f 104/140/2 101/135/2 105/141/2
f 102/142/2 103/143/2 106/144/2
f 103/139/2 104/140/2 107/145/2
f 106/144/2 103/143/2 107/146/2
f 104/147/2 105/148/2 108/149/2
f 107/145/2 104/140/2 108/150/2
f 108/149/2 105/148/2 109/151/2
f 106/152/2 107/145/2 110/153/2
f 107/145/2 108/150/2 110/153/2
f 108/150/2 109/154/2 110/153/2
f 110/153/2 109/154/2 111/155/2
f 112/156/2 113/157/2 114/158/2
f 114/158/2 113/157/2 115/159/2
f 116/160/3 117/161/3 118/162/3
f 119/163/3 120/164/3 117/165/3
f 119/166/3 121/167/3 120/168/3
f 122/169/3 123/170/3 121/171/3
f 122/172/3 121/167/3 119/166/3
f 124/173/3 119/163/3 117/165/3
f 124/173/3 122/169/3 119/163/3
f 125/174/3 123/170/3 122/169/3
f 125/174/3 122/169/3 124/173/3
f 126/175/3 116/176/3 127/177/3
f 128/178/3 117/161/3 116/160/3
f 128/179/3 116/176/3 126/175/3
f 129/180/3 117/161/3 128/178/3
f 130/181/3 124/173/3 117/165/3
f 130/182/3 117/161/3 129/180/3
f 131/183/3 125/184/3 124/185/3
f 131/186/3 124/173/3 130/181/3
f 132/187/3 123/170/3 125/174/3
f 132/188/3 125/184/3 131/183/3
f 133/189/3 134/190/3 123/191/3
f 133/192/3 123/170/3 132/187/3
f 135/193/3 136/194/3 134/195/3
f 135/196/3 134/190/3 133/189/3
f 137/197/3 136/194/3 135/193/3
f 138/198/3 139/199/3 140/200/3
f 141/201/3 139/199/3 138/198/3
f 142/202/3 143/203/3 144/204/3
f 145/205/3 143/203/3 142/202/3
f 146/206/3 143/203/3 145/205/3
f 147/207/3 148/208/3 149/209/3
f 147/210/3 145/211/3 142/212/3
f 147/210/3 142/212/3 148/213/3
f 150/214/3 145/211/3 147/210/3
f 151/215/3 138/216/3 152/217/3
f 153/218/3 138/216/3 151/215/3
f 154/219/3 147/207/3 149/209/3
f 155/220/3 147/207/3 154/219/3
f 156/221/3 157/222/3 153/223/3
f 158/224/3 157/222/3 156/221/3
f 159/225/3 160/226/3 161/227/3
f 162/228/3 160/226/3 159/225/3
f 163/229/3 164/230/3 162/231/3
f 165/232/3 164/230/3 163/229/3
f 166/233/3 167/234/3 168/235/3
f 169/236/3 167/234/3 166/233/3
f 170/237/4 171/238/4 172/239/4
f 172/239/4 171/238/4 173/240/4
f 173/240/4 171/238/4 174/241/4
f 175/242/4 172/243/4 176/244/4
f 176/244/4 172/243/4 177/245/4
f 178/246/4 179/247/4 180/248/4
f 180/248/4 179/247/4 181/249/4
f 182/250/4 183/251/4 184/252/4
f 185/253/4 186/254/4 187/255/4
f 187/255/4 186/254/4 188/256/4
f 189/257/4 180/258/4 190/259/4
f 190/259/4 180/258/4 191/260/4
f 182/250/4 184/252/4 192/261/4
f 184/262/4 187/255/4 193/263/4
f 192/261/4 184/252/4 193/264/4
f 187/255/4 188/256/4 193/263/4
f 193/263/4 188/256/4 194/265/4
f 191/266/4 195/267/4 196/268/4
f 196/268/4 195/267/4 197/269/4
f 194/270/4 198/271/4 199/272/4
f 199/272/4 198/271/4 200/273/4
f 201/274/4 202/275/4 203/276/4
f 204/277/4 205/278/4 206/279/4
f 206/279/4 205/278/4 207/280/4
f 208/281/4 203/282/4 209/283/4
f 203/276/4 202/275/4 210/284/4
f 209/283/4 203/282/4 210/285/4
f 202/286/4 211/287/4 212/288/4
f 211/289/4 213/290/4 212/291/4
f 213/292/4 214/293/4 215/294/4
f 212/291/4 213/290/4 215/295/4
f 210/284/4 202/275/4 216/296/4
f 212/288/4 215/294/4 217/297/4
f 216/296/4 202/275/4 217/298/4
f 202/286/4 212/288/4 217/297/4
f 215/294/4 214/293/4 218/299/4
f 217/297/4 215/294/4 218/299/4
f 214/300/4 219/301/4 218/302/4
f 219/303/4 220/304/4 221/305/4
f 218/302/4 219/301/4 221/306/4
f 221/305/4 220/304/4 222/307/4
f 223/308/5 224/309/5 225/310/5
f 226/311/5 224/309/5 223/308/5
f 227/312/5 228/313/5 229/314/5
f 230/315/5 228/313/5 227/312/5
f 231/316/5 227/312/5 232/317/5
f 233/318/5 227/312/5 231/316/5
f 234/319/5 235/320/5 230/315/5
f 236/321/5 235/320/5 234/319/5
f 237/322/5 234/319/5 233/318/5
f 238/323/5 234/319/5 237/322/5
f 239/324/5 240/325/5 241/326/5
f 242/327/5 240/325/5 239/324/5
f 243/328/5 244/329/5 245/330/5
f 246/331/5 244/329/5 243/328/5
f 247/332/5 248/333/5 249/334/5
f 250/335/5 248/333/5 247/332/5
f 251/336/5 252/337/5 253/338/5
f 254/339/5 252/337/5 251/336/5
f 255/340/5 256/341/5 257/342/5
f 258/343/5 256/341/5 255/340/5
f 259/344/5 260/345/5 258/346/5
f 261/347/5 260/345/5 259/344/5
f 262/348/5 263/349/5 264/350/5
f 265/351/5 263/349/5 262/348/5
f 266/352/5 267/353/5 268/354/5
f 269/355/5 267/353/5 266/352/5
f 270/356/6 271/357/6 272/358/6
f 272/358/6 271/357/6 273/359/6
f 270/356/6 272/358/6 274/360/6
f 273/359/6 271/357/6 275/361/6
f 270/356/6 274/360/6 276/362/6
f 274/360/6 275/361/6 276/362/6
f 275/361/6 271/357/6 277/363/6
f 276/362/6 275/361/6 277/363/6
f 278/364/6 279/365/6 280/366/6
f 280/366/6 279/365/6 281/367/6
f 282/368/6 280/366/6 283/369/6
f 283/369/6 280/366/6 284/370/6
f 285/371/6 286/372/6 287/373/6
f 287/373/6 286/372/6 288/374/6
f 287/373/6 288/374/6 289/375/6
f 288/374/6 290/376/6 289/375/6
f 289/375/6 290/376/6 291/377/6
f 291/377/6 290/376/6 292/378/6
f 293/379/6 294/380/6 295/381/6
f 295/381/6 294/380/6 296/382/6
f 297/383/6 298/384/6 299/385/6
f 299/385/6 298/384/6 300/386/6
f 301/387/6 302/388/6 303/389/6
f 303/389/6 302/388/6 304/390/6
