# MagicaVoxel @ Ephtracy

# group
o 

# material
mtllib log.mtl
usemtl palette

# normals
vn -1 0 0
vn 1 0 0
vn 0 0 1
vn 0 0 -1
vn 0 -1 0
vn 0 1 0

# texcoords
vt 0.791016 0.5
vt 0.794922 0.5
vt 0.798828 0.5

# verts
v -0.5 0 0.2
v -0.5 0 -0.1
v -0.5 0.1 0.3
v -0.5 0.1 0.2
v -0.5 0.1 -0.1
v -0.5 0.1 -0.2
v -0.5 0.2 0.1
v -0.5 0.2 0
v -0.5 0.3 0.1
v -0.5 0.3 0
v -0.5 0.4 0.3
v -0.5 0.4 0.2
v -0.5 0.4 -0.1
v -0.5 0.4 -0.2
v -0.5 0.5 0.2
v -0.5 0.5 -0.1
v 0.5 0 0.2
v 0.5 0 -0.1
v 0.5 0.1 0.3
v 0.5 0.1 0.2
v 0.5 0.1 -0.1
v 0.5 0.1 -0.2
v 0.5 0.2 0.1
v 0.5 0.2 0
v 0.5 0.3 0.1
v 0.5 0.3 0
v 0.5 0.4 0.3
v 0.5 0.4 0.2
v 0.5 0.4 -0.1
v 0.5 0.4 -0.2
v 0.5 0.5 0.2
v 0.5 0.5 -0.1
v -0.5 0.1 0.3
v -0.5 0.4 0.3
v -0.4 0.2 0.3
v -0.4 0.3 0.3
v -0.3 0.2 0.3
v -0.3 0.3 0.3
v -0.1 0.2 0.3
v -0.1 0.3 0.3
v -0.1 0.4 0.3
v 0 0.1 0.3
v 0 0.2 0.3
v 0 0.3 0.3
v 0.1 0.3 0.3
v 0.1 0.4 0.3
v 0.2 0.3 0.3
v 0.2 0.4 0.3
v 0.4 0.1 0.3
v 0.4 0.2 0.3
v 0.5 0.1 0.3
v 0.5 0.4 0.3
v -0.5 0 0.2
v -0.5 0.1 0.2
v -0.5 0.4 0.2
v -0.5 0.5 0.2
v -0.3 0 0.2
v -0.3 0.1 0.2
v -0.3 0.4 0.2
v -0.3 0.5 0.2
v -0.2 0 0.2
v -0.2 0.1 0.2
v -0.1 0 0.2
v -0.1 0.1 0.2
v -0.1 0.4 0.2
v -0.1 0.5 0.2
v 0 0.1 0.2
v 0 0.4 0.2
v 0 0.5 0.2
v 0.1 0.4 0.2
v 0.1 0.5 0.2
v 0.2 0.4 0.2
v 0.3 0 0.2
v 0.3 0.1 0.2
v 0.4 0.1 0.2
v 0.4 0.4 0.2
v 0.4 0.5 0.2
v 0.5 0 0.2
v 0.5 0.1 0.2
v 0.5 0.4 0.2
v 0.5 0.5 0.2
v -0.5 0 -0.1
v -0.5 0.1 -0.1
v -0.5 0.4 -0.1
v -0.5 0.5 -0.1
v -0.4 0.4 -0.1
v -0.2 0.1 -0.1
v -0.1 0.4 -0.1
v 0 0 -0.1
v 0 0.1 -0.1
v 0 0.4 -0.1
v 0 0.5 -0.1
v 0.1 0.4 -0.1
v 0.1 0.5 -0.1
v 0.3 0 -0.1
v 0.3 0.1 -0.1
v 0.3 0.4 -0.1
v 0.3 0.5 -0.1
v 0.4 0.1 -0.1
v 0.4 0.4 -0.1
v 0.5 0 -0.1
v 0.5 0.1 -0.1
v 0.5 0.4 -0.1
v 0.5 0.5 -0.1
v -0.5 0.1 -0.2
v -0.5 0.4 -0.2
v -0.4 0.3 -0.2
v -0.4 0.4 -0.2
v -0.3 0.2 -0.2
v -0.3 0.3 -0.2
v -0.2 0.1 -0.2
v -0.2 0.2 -0.2
v -0.1 0.3 -0.2
v -0.1 0.4 -0.2
v 0 0.1 -0.2
v 0 0.2 -0.2
v 0 0.3 -0.2
v 0 0.4 -0.2
v 0.1 0.3 -0.2
v 0.1 0.4 -0.2
v 0.3 0.1 -0.2
v 0.3 0.2 -0.2
v 0.3 0.3 -0.2
v 0.3 0.4 -0.2
v 0.4 0.1 -0.2
v 0.4 0.2 -0.2
v 0.4 0.3 -0.2
v 0.4 0.4 -0.2
v 0.5 0.1 -0.2
v 0.5 0.4 -0.2
v -0.5 0 0.2
v -0.3 0 0.2
v -0.2 0 0.2
v -0.1 0 0.2
v 0.3 0 0.2
v 0.5 0 0.2
v -0.4 0 0.1
v -0.3 0 0.1
v -0.2 0 0.1
v -0.1 0 0.1
v 0 0 0.1
v 0.3 0 0.1
v -0.4 0 0
v -0.1 0 0
v 0 0 0
v 0.3 0 0
v -0.5 0 -0.1
v 0 0 -0.1
v 0.3 0 -0.1
v 0.5 0 -0.1
v -0.5 0.1 0.3
v 0 0.1 0.3
v 0.4 0.1 0.3
v 0.5 0.1 0.3
v -0.5 0.1 0.2
v -0.3 0.1 0.2
v -0.2 0.1 0.2
v -0.1 0.1 0.2
v 0 0.1 0.2
v 0.3 0.1 0.2
v 0.4 0.1 0.2
v 0.5 0.1 0.2
v -0.5 0.1 -0.1
v -0.2 0.1 -0.1
v 0 0.1 -0.1
v 0.3 0.1 -0.1
v 0.4 0.1 -0.1
v 0.5 0.1 -0.1
v -0.5 0.1 -0.2
v -0.2 0.1 -0.2
v 0 0.1 -0.2
v 0.3 0.1 -0.2
v 0.4 0.1 -0.2
v 0.5 0.1 -0.2
v -0.5 0.4 0.3
v -0.1 0.4 0.3
v 0.1 0.4 0.3
v 0.2 0.4 0.3
v 0.5 0.4 0.3
v -0.5 0.4 0.2
v -0.3 0.4 0.2
v -0.1 0.4 0.2
v 0 0.4 0.2
v 0.1 0.4 0.2
v 0.2 0.4 0.2
v 0.4 0.4 0.2
v 0.5 0.4 0.2
v -0.5 0.4 -0.1
v -0.4 0.4 -0.1
v -0.1 0.4 -0.1
v 0 0.4 -0.1
v 0.1 0.4 -0.1
v 0.3 0.4 -0.1
v 0.4 0.4 -0.1
v 0.5 0.4 -0.1
v -0.5 0.4 -0.2
v -0.4 0.4 -0.2
v -0.1 0.4 -0.2
v 0 0.4 -0.2
v 0.1 0.4 -0.2
v 0.3 0.4 -0.2
v 0.4 0.4 -0.2
v 0.5 0.4 -0.2
v -0.5 0.5 0.2
v -0.3 0.5 0.2
v -0.1 0.5 0.2
v 0 0.5 0.2
v 0.1 0.5 0.2
v 0.4 0.5 0.2
v 0.5 0.5 0.2
v -0.2 0.5 0.1
v -0.1 0.5 0.1
v 0 0.5 0.1
v 0.1 0.5 0.1
v 0.4 0.5 0.1
v -0.3 0.5 0
v -0.2 0.5 0
v 0 0.5 0
v 0.1 0.5 0
v 0.3 0.5 0
v -0.5 0.5 -0.1
v 0 0.5 -0.1
v 0.1 0.5 -0.1
v 0.3 0.5 -0.1
v 0.5 0.5 -0.1

# faces
f 4/2/1 2/2/1 1/2/1
f 5/2/1 2/2/1 4/2/1
f 7/1/1 5/1/1 4/1/1
f 8/1/1 5/1/1 7/1/1
f 9/1/1 7/1/1 4/1/1
f 9/2/1 8/2/1 7/2/1
f 10/1/1 5/1/1 8/1/1
f 10/2/1 8/2/1 9/2/1
f 11/2/1 4/2/1 3/2/1
f 12/1/1 9/1/1 4/1/1
f 12/2/1 4/2/1 11/2/1
f 12/1/1 10/1/1 9/1/1
f 13/1/1 5/1/1 10/1/1
f 13/1/1 10/1/1 12/1/1
f 13/2/1 6/2/1 5/2/1
f 14/2/1 6/2/1 13/2/1
f 15/2/1 13/2/1 12/2/1
f 16/2/1 13/2/1 15/2/1
f 17/2/2 18/2/2 20/2/2
f 20/2/2 18/2/2 21/2/2
f 20/1/2 21/1/2 23/1/2
f 23/1/2 21/1/2 24/1/2
f 20/1/2 23/1/2 25/1/2
f 23/2/2 24/2/2 25/2/2
f 24/1/2 21/1/2 26/1/2
f 25/2/2 24/2/2 26/2/2
f 19/2/2 20/2/2 27/2/2
f 20/1/2 25/1/2 28/1/2
f 27/2/2 20/2/2 28/2/2
f 25/1/2 26/1/2 28/1/2
f 26/1/2 21/1/2 29/1/2
f 28/1/2 26/1/2 29/1/2
f 21/2/2 22/2/2 29/2/2
f 29/2/2 22/2/2 30/2/2
f 28/2/2 29/2/2 31/2/2
f 31/2/2 29/2/2 32/2/2
f 35/2/3 34/2/3 33/2/3
f 36/2/3 34/2/3 35/2/3
f 37/2/3 35/2/3 33/2/3
f 37/1/3 36/1/3 35/1/3
f 38/2/3 34/2/3 36/2/3
f 38/1/3 36/1/3 37/1/3
f 39/2/3 37/2/3 33/2/3
f 39/3/3 38/3/3 37/3/3
f 40/2/3 34/2/3 38/2/3
f 40/3/3 38/3/3 39/3/3
f 41/2/3 34/2/3 40/2/3
f 42/2/3 39/2/3 33/2/3
f 43/1/3 40/1/3 39/1/3
f 43/2/3 39/2/3 42/2/3
f 44/3/3 41/3/3 40/3/3
f 44/1/3 40/1/3 43/1/3
f 45/2/3 44/2/3 43/2/3
f 45/3/3 41/3/3 44/3/3
f 46/3/3 41/3/3 45/3/3
f 47/2/3 45/2/3 43/2/3
f 47/1/3 46/1/3 45/1/3
f 48/1/3 46/1/3 47/1/3
f 49/3/3 43/3/3 42/3/3
f 50/2/3 47/2/3 43/2/3
f 50/3/3 43/3/3 49/3/3
f 50/2/3 48/2/3 47/2/3
f 51/2/3 50/2/3 49/2/3
f 52/2/3 48/2/3 50/2/3
f 52/2/3 50/2/3 51/2/3
f 57/2/3 54/2/3 53/2/3
f 58/2/3 54/2/3 57/2/3
f 59/2/3 56/2/3 55/2/3
f 60/2/3 56/2/3 59/2/3
f 61/1/3 58/1/3 57/1/3
f 62/1/3 58/1/3 61/1/3
f 63/2/3 62/2/3 61/2/3
f 64/2/3 62/2/3 63/2/3
f 65/3/3 60/3/3 59/3/3
f 66/3/3 60/3/3 65/3/3
f 67/3/3 64/3/3 63/3/3
f 68/1/3 66/1/3 65/1/3
f 69/1/3 66/1/3 68/1/3
f 70/2/3 69/2/3 68/2/3
f 71/2/3 69/2/3 70/2/3
f 72/1/3 71/1/3 70/1/3
f 73/3/3 67/3/3 63/3/3
f 74/3/3 67/3/3 73/3/3
f 75/2/3 74/2/3 73/2/3
f 76/1/3 71/1/3 72/1/3
f 77/1/3 71/1/3 76/1/3
f 78/2/3 75/2/3 73/2/3
f 79/2/3 75/2/3 78/2/3
f 80/2/3 77/2/3 76/2/3
f 81/2/3 77/2/3 80/2/3
f 84/2/4 85/2/4 86/2/4
f 82/2/4 83/2/4 87/2/4
f 86/2/4 85/2/4 88/2/4
f 82/2/4 87/2/4 89/2/4
f 89/2/4 87/2/4 90/2/4
f 88/2/4 85/2/4 91/2/4
f 91/2/4 85/2/4 92/2/4
f 91/1/4 92/1/4 93/1/4
f 93/1/4 92/1/4 94/1/4
f 89/3/4 90/3/4 95/3/4
f 95/3/4 90/3/4 96/3/4
f 93/3/4 94/3/4 97/3/4
f 97/3/4 94/3/4 98/3/4
f 95/2/4 96/2/4 99/2/4
f 97/2/4 98/2/4 100/2/4
f 95/2/4 99/2/4 101/2/4
f 101/2/4 99/2/4 102/2/4
f 100/2/4 98/2/4 103/2/4
f 103/2/4 98/2/4 104/2/4
f 105/2/4 106/2/4 107/2/4
f 107/2/4 106/2/4 108/2/4
f 105/2/4 107/2/4 109/2/4
f 107/3/4 108/3/4 110/3/4
f 109/2/4 107/2/4 110/2/4
f 105/2/4 109/2/4 111/2/4
f 109/1/4 110/1/4 112/1/4
f 111/2/4 109/2/4 112/2/4
f 110/3/4 108/3/4 113/3/4
f 112/1/4 110/1/4 113/1/4
f 113/3/4 108/3/4 114/3/4
f 111/3/4 112/3/4 115/3/4
f 112/1/4 113/1/4 116/1/4
f 115/3/4 112/3/4 116/3/4
f 113/2/4 114/2/4 117/2/4
f 116/1/4 113/1/4 117/1/4
f 117/2/4 114/2/4 118/2/4
f 116/3/4 117/3/4 119/3/4
f 117/3/4 118/3/4 119/3/4
f 119/3/4 118/3/4 120/3/4
f 115/2/4 116/2/4 121/2/4
f 116/3/4 119/3/4 122/3/4
f 121/2/4 116/2/4 122/2/4
f 119/2/4 120/2/4 123/2/4
f 122/3/4 119/3/4 123/3/4
f 123/2/4 120/2/4 124/2/4
f 121/1/4 122/1/4 125/1/4
f 122/2/4 123/2/4 126/2/4
f 125/1/4 122/1/4 126/1/4
f 123/1/4 124/1/4 127/1/4
f 126/2/4 123/2/4 127/2/4
f 127/1/4 124/1/4 128/1/4
f 125/2/4 126/2/4 129/2/4
f 126/2/4 127/2/4 129/2/4
f 127/2/4 128/2/4 129/2/4
f 129/2/4 128/2/4 130/2/4
f 137/2/5 132/2/5 131/2/5
f 138/1/5 133/1/5 132/1/5
f 138/2/5 132/2/5 137/2/5
f 139/2/5 134/2/5 133/2/5
f 139/1/5 133/1/5 138/1/5
f 140/3/5 135/3/5 134/3/5
f 140/2/5 134/2/5 139/2/5
f 141/3/5 135/3/5 140/3/5
f 142/2/5 136/2/5 135/2/5
f 142/3/5 135/3/5 141/3/5
f 143/2/5 137/2/5 131/2/5
f 143/3/5 138/3/5 137/3/5
f 143/3/5 139/3/5 138/3/5
f 143/3/5 140/3/5 139/3/5
f 144/1/5 141/1/5 140/1/5
f 144/3/5 140/3/5 143/3/5
f 145/2/5 142/2/5 141/2/5
f 145/1/5 141/1/5 144/1/5
f 146/2/5 136/2/5 142/2/5
f 146/2/5 142/2/5 145/2/5
f 147/2/5 143/2/5 131/2/5
f 147/2/5 145/2/5 144/2/5
f 147/2/5 144/2/5 143/2/5
f 148/3/5 146/3/5 145/3/5
f 148/2/5 145/2/5 147/2/5
f 149/2/5 136/2/5 146/2/5
f 149/3/5 146/3/5 148/3/5
f 150/2/5 136/2/5 149/2/5
f 155/2/5 152/2/5 151/2/5
f 156/2/5 152/2/5 155/2/5
f 157/2/5 152/2/5 156/2/5
f 158/2/5 152/2/5 157/2/5
f 159/3/5 153/3/5 152/3/5
f 159/2/5 152/2/5 158/2/5
f 160/3/5 153/3/5 159/3/5
f 161/2/5 154/2/5 153/2/5
f 161/3/5 153/3/5 160/3/5
f 162/2/5 154/2/5 161/2/5
f 169/2/5 164/2/5 163/2/5
f 170/3/5 165/3/5 164/3/5
f 170/2/5 164/2/5 169/2/5
f 171/2/5 166/2/5 165/2/5
f 171/3/5 165/3/5 170/3/5
f 172/1/5 167/1/5 166/1/5
f 172/2/5 166/2/5 171/2/5
f 173/2/5 168/2/5 167/2/5
f 173/1/5 167/1/5 172/1/5
f 174/2/5 168/2/5 173/2/5
f 175/2/6 176/2/6 180/2/6
f 180/2/6 176/2/6 181/2/6
f 176/3/6 177/3/6 182/3/6
f 181/2/6 176/2/6 182/2/6
f 182/3/6 177/3/6 183/3/6
f 177/1/6 178/1/6 184/1/6
f 183/3/6 177/3/6 184/3/6
f 178/2/6 179/2/6 185/2/6
f 184/1/6 178/1/6 185/1/6
f 185/2/6 179/2/6 186/2/6
f 186/2/6 179/2/6 187/2/6
f 188/2/6 189/2/6 196/2/6
f 189/3/6 190/3/6 197/3/6
f 196/2/6 189/2/6 197/2/6
f 190/2/6 191/2/6 198/2/6
f 197/3/6 190/3/6 198/3/6
f 191/3/6 192/3/6 199/3/6
f 198/2/6 191/2/6 199/2/6
f 192/2/6 193/2/6 200/2/6
f 199/3/6 192/3/6 200/3/6
f 193/1/6 194/1/6 201/1/6
f 200/2/6 193/2/6 201/2/6
f 194/2/6 195/2/6 202/2/6
f 201/1/6 194/1/6 202/1/6
f 202/2/6 195/2/6 203/2/6
f 205/3/6 206/3/6 211/3/6
f 206/1/6 207/1/6 212/1/6
f 211/3/6 206/3/6 212/3/6
f 207/2/6 208/2/6 213/2/6
f 212/1/6 207/1/6 213/1/6
f 208/1/6 209/1/6 214/1/6
f 213/2/6 208/2/6 214/2/6
f 209/2/6 210/2/6 215/2/6
f 214/1/6 209/1/6 215/1/6
f 204/2/6 205/2/6 216/2/6
f 205/3/6 211/3/6 216/3/6
f 213/2/6 214/2/6 217/2/6
f 216/3/6 211/3/6 217/3/6
f 214/2/6 215/2/6 217/2/6
f 212/2/6 213/2/6 217/2/6
f 211/2/6 212/2/6 217/2/6
f 217/2/6 215/2/6 218/2/6
f 218/2/6 215/2/6 219/2/6
f 219/2/6 215/2/6 220/2/6
f 204/2/6 216/2/6 221/2/6
f 216/2/6 217/2/6 221/2/6
f 217/2/6 218/2/6 221/2/6
f 218/1/6 219/1/6 222/1/6
f 221/2/6 218/2/6 222/2/6
f 219/3/6 220/3/6 223/3/6
f 222/1/6 219/1/6 223/1/6
f 220/2/6 215/2/6 224/2/6
f 223/3/6 220/3/6 224/3/6
f 215/2/6 210/2/6 225/2/6
f 224/2/6 215/2/6 225/2/6
